<svg width="245.292529296875px" height="121.61751098632813px" xmlns="http://www.w3.org/2000/svg" viewBox="127.3537353515625 14.191244506835936 245.292529296875 121.61751098632813" style="background: rgba(0, 0, 0, 0);" preserveAspectRatio="xMidYMid"><defs><linearGradient id="editing-gradient-gradient" x1="0" x2="1" y1="0.5" y2="0.5" gradientUnits="objectBoundingBox"><stop offset="0" stop-color="#d63cc4"></stop><stop offset="1" stop-color="#9388da"></stop></linearGradient></defs><g><g transform="translate(167.95499634742737, 97.21125030517578)"><path d="M14.21 0L0.51 0L8.32-42.05L8.32-42.05Q14.66-42.75 23.90-42.75L23.90-42.75L23.90-42.75Q33.15-42.75 37.44-40.06L37.44-40.06L37.44-40.06Q41.73-37.38 41.73-31.97L41.73-31.97L41.73-31.97Q41.73-26.56 38.94-23.17L38.94-23.17L38.94-23.17Q36.16-19.78 31.36-18.69L31.36-18.69L31.36-18.69Q32.45-13.38 34.94-9.09L34.94-9.09L34.94-9.09Q37.25-5.06 39.94-3.78L39.94-3.78L39.94-3.78Q38.98-1.09 37.02 0.10L37.02 0.10L37.02 0.10Q35.07 1.28 32.29 1.28L32.29 1.28L32.29 1.28Q29.50 1.28 27.33-0.35L27.33-0.35L27.33-0.35Q25.15-1.98 23.42-4.99L23.42-4.99L23.42-4.99Q19.78-11.52 19.39-21.82L19.39-21.82L19.84-21.82L19.84-21.82Q24.58-21.95 26.94-24.42L26.94-24.42L26.94-24.42Q29.31-26.88 29.31-32.06L29.31-32.06L29.31-32.06Q29.31-38.53 23.87-38.78L23.87-38.78L22.46-38.78L22.46-38.78Q21.89-38.78 21.57-38.72L21.57-38.72L14.21 0ZM72.77 1.28L72.77 1.28L72.77 1.28Q64.58 1.28 63.81-10.37L63.81-10.37L52.80-10.37L52.80-10.37Q51.52-7.42 50.62-4.86L50.62-4.86L48.96 0L40 0L60.16-42.24L73.92-42.24L76.61-11.14L76.61-11.14Q77.25-4.42 79.81-2.43L79.81-2.43L79.81-2.43Q77.95 1.28 72.77 1.28ZM58.30-23.17L54.78-15.04L63.62-15.04L62.85-31.49L62.85-33.22L58.30-23.17ZM108.48-29.57L108.48-29.57L108.48-29.57Q109.44-31.49 109.44-33.28L109.44-33.28L109.44-33.28Q109.44-35.07 109.25-36.06L109.25-36.06L109.25-36.06Q109.06-37.06 108.61-37.82L108.61-37.82L108.61-37.82Q107.65-39.49 105.73-39.49L105.73-39.49L105.73-39.49Q103.36-39.49 101.44-37.76L101.44-37.76L101.44-37.76Q99.39-35.97 99.39-33.15L99.39-33.15L99.39-33.15Q99.39-31.36 100.64-29.98L100.64-29.98L100.64-29.98Q101.89-28.61 103.81-27.33L103.81-27.33L103.81-27.33Q105.73-26.05 107.90-24.77L107.90-24.77L107.90-24.77Q110.08-23.49 112-21.95L112-21.95L112-21.95Q116.42-18.43 116.42-13.70L116.42-13.70L116.42-13.70Q116.42-10.50 114.72-7.78L114.72-7.78L114.72-7.78Q113.02-5.06 110.21-3.07L110.21-3.07L110.21-3.07Q104.06 1.28 95.94 1.28L95.94 1.28L95.94 1.28Q89.34 1.28 85.95-0.86L85.95-0.86L85.95-0.86Q82.56-3.01 82.56-6.27L82.56-6.27L82.56-6.27Q82.56-12.10 87.10-13.57L87.10-13.57L87.10-13.57Q88.38-14.02 90.34-14.02L90.34-14.02L90.34-14.02Q92.29-14.02 94.53-13.18L94.53-13.18L94.53-13.18Q93.50-10.56 93.50-8.19L93.50-8.19L93.50-8.19Q93.50-3.07 97.15-3.07L97.15-3.07L97.15-3.07Q99.52-3.07 101.47-4.80L101.47-4.80L101.47-4.80Q103.42-6.53 103.42-8.48L103.42-8.48L103.42-8.48Q103.42-10.43 102.18-11.84L102.18-11.84L102.18-11.84Q100.93-13.25 99.07-14.37L99.07-14.37L99.07-14.37Q97.22-15.49 95.07-16.58L95.07-16.58L95.07-16.58Q92.93-17.66 91.07-19.20L91.07-19.20L91.07-19.20Q86.72-22.72 86.72-28.35L86.72-28.35L86.72-28.35Q86.72-32 88.51-34.85L88.51-34.85L88.51-34.85Q90.30-37.70 93.18-39.62L93.18-39.62L93.18-39.62Q98.94-43.52 106.02-43.52L106.02-43.52L106.02-43.52Q113.09-43.52 116.51-41.41L116.51-41.41L116.51-41.41Q119.94-39.30 119.94-35.71L119.94-35.71L119.94-35.71Q119.94-32.58 117.50-30.59L117.50-30.59L117.50-30.59Q115.39-28.93 112.83-28.93L112.83-28.93L112.83-28.93Q110.27-28.93 108.48-29.57ZM122.24-15.62L122.24-15.62L122.24-15.62Q122.24-27.71 128.51-35.33L128.51-35.33L128.51-35.33Q135.17-43.58 146.75-43.58L146.75-43.58L146.75-43.58Q155.14-43.58 159.36-39.52L159.36-39.52L159.36-39.52Q163.58-35.46 163.58-26.88L163.58-26.88L163.58-26.88Q163.58-13.82 156.93-6.21L156.93-6.21L156.93-6.21Q150.34 1.28 139.26 1.28L139.26 1.28L139.26 1.28Q130.62 1.28 126.43-3.04L126.43-3.04L126.43-3.04Q122.24-7.36 122.24-15.62ZM139.07-28.86L139.07-28.86L139.07-28.86Q136.19-17.34 136.19-8.26L136.19-8.26L136.19-8.26Q136.19-6.08 136.93-4.67L136.93-4.67L136.93-4.67Q137.66-3.26 139.62-3.26L139.62-3.26L139.62-3.26Q141.57-3.26 142.78-4.19L142.78-4.19L142.78-4.19Q144-5.12 144.96-7.23L144.96-7.23L144.96-7.23Q146.50-10.69 147.94-18.02L147.94-18.02L147.94-18.02Q149.38-25.34 149.50-28.38L149.50-28.38L149.50-28.38Q149.63-31.42 149.63-33.73L149.63-33.73L149.63-33.73Q149.63-36.03 148.93-37.50L148.93-37.50L148.93-37.50Q148.22-38.98 146.34-38.98L146.34-38.98L146.34-38.98Q144.45-38.98 143.17-37.82L143.17-37.82L143.17-37.82Q140.80-35.65 139.07-28.86Z" fill="url(#editing-gradient-gradient)"></path></g></g><style>text {
  font-size: 64px;
  font-family: Arial Black;
  dominant-baseline: central;
  text-anchor: middle;
}</style></svg>